# xmcd
#
# Track frame offsets:
#	150
#	16955
#	38226
#	60309
#	79466
#	94829
#	117490
#	131617
#	157174
#	173516
#	190343
#	214074
#	236731
#	257518
#	279203
#	298297
#	317984
#
# Disc length: 4445 seconds
#
# Revision: 1
# Processed by: cddbd v1.5.2PL0 Copyright (c) Steve Scherf et al.
# Submitted via: audiograbber 1.81.01
#
DISCID=f8115b11
DTITLE=Love Kiwi Love 2 - Volumen 2
DYEAR=1999
DGENRE=Ballad
TTITLE0=The Moody Blues - Had To Fall In Love
TTITLE1=The Alan Parson Project - Eye In The Sky
TTITLE2=Reo Speedwagon - I Cant Fight This Feeling
TTITLE3=Berlin - Take My Breath Away
TTITLE4=Kansas - Dust In The Wind
TTITLE5=George Michael - Careless Whispers
TTITLE6=Inxs - Never Tears Us Apart
TTITLE7=Spandau Ballet - True
TTITLE8=MArillion - Kayleigh
TTITLE9=Don McLean - Crying
TTITLE10=Richard Marx - Angelina
TTITLE11=Michael Bolton - How Am I Supposed
TTITLE12=Europe - Carrie
TTITLE13=Foreigner - I Want To Know What Love Is
TTITLE14=The Cars - Im Not The One
TTITLE15=Peter Cetera - The Glory Of Love
TTITLE16=Simply Red - If You Dont Know Me By Now
EXTD=Dj Kiwi
EXTT0=
EXTT1=
EXTT2=
EXTT3=
EXTT4=
EXTT5=
EXTT6=
EXTT7=
EXTT8=
EXTT9=
EXTT10=
EXTT11=
EXTT12=
EXTT13=
EXTT14=
EXTT15=
EXTT16=
PLAYORDER=
